# xmcd
#
# Track frame offsets:
# 150
# 18127
# 31061
# 44273
# 56960
# 73709
# 90238
# 101027
# 112503
# 128752
# 149548
# 173361
# 194473
# 197878
#
# Disc length: 2809 seconds
#
#
# Revision: 0
# Processed by: cddbd v1.5.2PL0 Copyright (c) Steve Scherf et al.
# Submitted via: FreeRIP 2.951 
#
DISCID=b40af70e
DTITLE=Jay Dee - Story CD2
DYEAR=1900
DGENRE=Hip-Hop
TTITLE0=Always Find A Way(Remix)
TTITLE1=Dont Stop
TTITLE2=Supa Shit
TTITLE3=New Years at JayDees
TTITLE4=Show Me What You Got Remix
TTITLE5=Give It Up Pt Two
TTITLE6=Hold Tight Remix
TTITLE7=Fuck The Police
TTITLE8=Move(Frank N Dank)
TTITLE9=Nothing But Your Love Remix
TTITLE10=Love Junkee Remix
TTITLE11=As Serious As Your Life Remix
TTITLE12=Fight Club
TTITLE13=The Message
EXTD=
EXTT0=
EXTT1=
EXTT2=
EXTT3=
EXTT4=
EXTT5=
EXTT6=
EXTT7=
EXTT8=
EXTT9=
EXTT10=
EXTT11=
EXTT12=
EXTT13=
PLAYORDER=
